<?xml version="1.0" encoding="UTF-8"?>
<svg id="_레이어_1" data-name="레이어_1" xmlns="http://www.w3.org/2000/svg" version="1.1" viewBox="0 0 1018.4 643.6">
  <!-- Generator: Adobe Illustrator 29.0.0, SVG Export Plug-In . SVG Version: 2.1.0 Build 186)  -->
  <defs>
    <style>
      .st0 {
        fill: #fff;
        stroke: #000;
        stroke-miterlimit: 10;
        stroke-width: 4px;
      }

      .st1 {
        fill: #141414;
      }
    </style>
  </defs>
  <path class="st0" d="M329.4,628.8l-.7.2-.6-.8-7.7-10.9-8.7-1.5-12.6,8.3-68-11.8-12.7-17.2-2.6-.2-10.9,10.3h-71.9l-9.9-9.2h-8.9l-9.9,9.2H28.6l-23.5-22.8v-18.6l26.2-29v-41.8l-26.2-29v-18.5l27.8-28c2.7-15.5,9-28.8,18.6-39.6,14.1-15.9,34.2-23.9,59.8-23.9s24.8,2.5,34.5,7.5l13.1-4.9h19.1l23.9,23.9v37.1l-8.7,9.3v8.9l10.3,10.9v89.7l1.9,4.7,18.5,18.5,2.2.2,19.7-16.1,7.1-41.2-21-33.1,3.2-18.3,27-18.4,46,8,5.4,6.9,17.7-.5.8-2.2c-1.6-2.1-3.1-4.3-4.6-6.6-6.4-10-11-21.5-13.8-34.2-3.8-17.2-3.7-33.6.3-48.8,4.1-15.8,12.1-29.3,23.6-40.3,11.5-10.9,26.1-18.4,43.5-22.2l.8-.2,1.4-1.4,1.2-5.9-.8-1.9-15.4-9.8-1.2-1.8-3.3-15,.4-2.1,16.4-25.7,1.8-1.2,48-10.6,25.8-5.9,3.3,2.1,1.7,7.7,1.9,1.4,45.6-4.5,1.5-1.9-1.2-12.5,2.5-3.1,21.2-2.1,1.3-.7,2.8-3.4.4-1.4-9.2-94.1-.7-1.3-4.7-3.9-.7-.4-1.1-.3-23.6-19.4-1-1.9-1.7-17.5.6-2.1,19.4-23.6,1.9-1,66.7-6.5,1.7.4,21.9,12.4,1.2,1.3,40.6,86,1.8,1,5.9-.6,1.6-1.4,23.3-92.3.9-1.5,19-16.4,1.6-.7,66.3-6.5,2.1.6,23.6,19.4,1,1.9,1.7,17.5-.6,2.1-19.4,23.6-1,.5-.6.5-3.9,4.7-.4,1.4,5.2,53.1h1.9c1.6-11.6,5-22.5,10.2-32.3,7.7-14.5,18.6-26,32.6-34.2,13.8-8.2,29.8-12.3,47.7-12.3s34.1,4.1,47.7,12.3c13.8,8.3,24.5,19.9,31.9,34.4,4.8,9.6,8,20.2,9.5,31.6l2.4,1.1,10.1-6.8,2.2-.4,24.4,5.2,1.8,1.3,16.4,26.4.3,2.2-34.3,135.2-1.3,1.7-2.8,1.7-.8,1.2-1.2,5.3.3,1.4,6.3,9.8.4,2.1-5.7,26.5-1.2,1.8-25.6,16.6-2.1.4-27.5-5.9-1.8-1.2-16.6-25.6-.4-2.1,5.7-26.5,1.2-1.8,11.1-7.2.8-1.2,1.1-5.3-.3-1.4-1-1.4-.4-2.1,10.2-58.4-2.2-1.3c-2,1.5-4,2.9-6.1,4.2-14.8,9.3-32,14-51.3,14s-34.4-3.8-48.7-12c-2.9-1.7-5.9-3.6-8.6-5.7l-2.4.3-16.3,19.9-1.9,1-80,7.8-2.1-.6-11-9.1-1.2-.4h-5l-1.2.5-14.6,12.5-1.6.7-20.6,2-1.7-.4-17.2-9.7-1.3-.2-4.9.9-1.1.7-9.4,11.4-1.9,1-55,5.4-87.6,8.7-1.5,2,24.9,113.2.3.7,1.4,1.9,1.9.7,18.7-4.3,3.3,2.1,4.7,20.9v.3c0,0,2.2,9.6,2.2,9.6l6,26.6-2.1,3.3-45.9,10.4h-.4l-17.7,3.8-2.1-.4-6.6-4.2-1.2-.3-4.9.5-1.1.5c-1.2,1.2-2.5,2.3-3.7,3.3-8.5,7-19.2,12-31.6,14.7-2.9.6-6,1.2-9,1.5l-1.3,2.3c6.4,13.4,8,29.6,4.8,48.1l-7.6,44.1v.8l.7,3,.3.7,18.6,26.5-3.2,18.3-25.8,18.2-67.2-11.7h-.3Z"/>
  <g>
    <path class="st1" d="M87.2,406c6.6-5.5,19.2-8.3,29.1-8.3s18.2,1.7,25,5.2c6.7,3.5,11.7,9.1,14.8,16.8h.2c0-.1,24.1-.1,24.1-.1v-41.6h-24.2v31.6h-1c-2.4-12.1-7.3-20.8-14.6-26.1-7.3-5.3-10.1-8-29.3-8s-33.8,5.5-43.6,16.6c-9.9,11.1-14.8,26-14.8,44.6v7.5h-26.6v20.9h26.6v97.4h-26.6v20.9h80.2v-20.9h-29.2v-97.4h36.7v-20.9h-36.7v-9.5c0-13.6,3.3-23.2,9.9-28.7Z"/>
    <polygon class="st1" points="181.9 562.5 181.9 444.2 130.7 444.2 130.7 465.1 157.5 465.1 157.5 562.5 130.7 562.5 130.7 583.4 207.1 583.4 207.1 562.5 181.9 562.5 181.9 562.5"/>
    <path class="st1" d="M482.5,416.6l-39.7-180.1-58.3,12.8,4.5,20.4,34.4-7.6,13.9,63.2c-6.5-5.2-13.6-9-21.2-11.1-9.5-2.7-19.6-2.9-30.3-.5h0c-13.5,2.9-24.6,8.5-33.2,16.7-8.6,8.2-14.5,18.2-17.6,30.1-3,11.8-3.1,24.7,0,38.6,2.2,10.3,5.9,19.4,10.9,27.3,5,7.9,11.1,14.4,18.2,19.5,7.1,5.1,15,8.5,23.5,10.3,8.6,1.7,17.5,1.5,26.8-.5,9.1-2,16.6-5.5,22.5-10.3,5.9-4.8,10.1-10.7,12.9-17.5,2.8-6.8,4.1-14.3,4.1-22.5l.9-.2,8.2,37h.2l48.2-10.6-4.5-20.4-24.4,5.4ZM449,400.7c-2,8.3-5.8,15.3-11.5,20.9-5.7,5.7-13.2,9.6-22.5,11.6-8.8,2-17.1,1.6-24.7-1.1-7.7-2.8-14.2-7.4-19.5-14-5.3-6.6-9.1-14.8-11.2-24.4-2.1-9.8-2.2-18.7-.3-26.9,1.9-8.2,5.7-15.2,11.5-20.8,5.8-5.6,13.3-9.5,22.5-11.5,9.4-2.1,17.9-1.8,25.5.9,7.5,2.7,13.9,7.3,19,13.9,5.1,6.4,8.6,14.2,10.7,23.4l.2.9h0c2.1,9.8,2.2,18.8.3,27.1Z"/>
    <path class="st1" d="M392.2,525.2c2.8-15.9,1.1-28.8-4.9-38.6-6.1-9.9-16.3-16-30.6-18.5-8.7-1.5-16.6-1.2-24,.9-7.3,2.1-13.7,6-19.2,11.6-5.4,5.6-9.7,13.1-12.8,22.3l-.9-.2,7-40.5-50.5-8.8-3.6,20.6,26.4,4.6-16.6,95.9-26.4-4.6-3.6,20.6,72.5,12.6,3.6-20.6-22-3.8,9.2-53.2c1.9-8.5,5-15.6,9.3-21.4,5-6.8,11-11.6,17.9-14.6s14.3-3.8,22.2-2.4c9.5,1.7,16,5.8,19.6,12.3s4.5,14.8,2.8,24.8l-11.5,66.5h-.1c0,.1-21.6-3.7-21.6-3.7l-3.6,20.6,70.4,12.2,3.6-20.6-24.7-4.3,12.1-69.7Z"/>
    <rect class="st1" x="925.1" y="303.1" width="32.6" height="33.6" transform="translate(432.6 1174.2) rotate(-78)"/>
    <polygon class="st1" points="995.1 148.1 965.1 141.7 940.1 284.6 959.4 288.7 995.1 148.1"/>
    <polygon class="st1" points="761.6 198 747.1 49.5 775.9 46.7 773.7 23.7 702.5 30.7 702.5 30.7 702.4 30.6 660.5 197 587.3 41.9 587.2 42.1 515.8 49.1 518 72.1 546.8 69.3 561.3 217.8 532.5 220.6 534.7 243.5 617.7 235.4 615.5 212.4 585.1 215.4 570.6 66.9 571.7 66.8 650.4 232.2 650.4 232.1 675.2 229.7 720.5 52.2 721.7 52.1 736.2 200.6 704.9 203.7 707.1 226.7 707.1 226.6 792.6 218.2 790.4 195.2 761.6 198"/>
    <polygon class="st1" points="534.7 243.6 534.7 243.5 534.6 243.5 534.7 243.6"/>
    <path class="st1" d="M911,166.5c-3.4,8-8.6,14.4-15.8,19-7.2,4.6-16,6.9-25.7,6.9s-17.9-2.1-24.8-6.3-12.2-10-15.9-17.4c-2.7-5.4-4.4-11.1-5.1-17.7h112.9v-.2c.1-.8.3-1.6.3-2.7,0-1.2,0,9.4,0-4.9s-2.7-26.9-8.2-37.8c-5.5-10.9-13.4-19.4-23.7-25.6-10.3-6.1-22.6-9.2-36.6-9.2s-26.2,3.1-36.7,9.3c-10.4,6.2-18.6,14.7-24.4,25.7-5.8,10.9-8.7,23.6-8.7,37.6s2.9,26.4,8.6,37.2c5.8,10.8,13.9,19.3,24.6,25.4,10.7,6.1,23.2,9.2,37.9,9.2,15.2,0,28.4-3.6,39.7-10.7,11.4-7.1,19.6-16.8,24.6-29.1l-23.1-8.7ZM844.8,98.9c6.8-4.3,14.4-6.4,23.7-6.4s17.3,2.2,23.9,6.4c6.5,4.2,11.6,9.9,15.1,17.3,2.3,4.9,3.9,10.4,4.7,16.2h-88.1c.9-5.7,2.5-10.9,4.9-15.6,3.8-7.7,9-13.6,15.8-17.9Z"/>
    <path class="st1" d="M869.9,215s0,0-.1,0c0,0,0,0,0,0h.2Z"/>
  </g>
</svg>